<?xml version="1.0" encoding="iso-8859-1"?>
<!-- Generator: Adobe Illustrator 22.0.1, SVG Export Plug-In . SVG Version: 6.00 Build 0)  -->
<svg version="1.1" xmlns="http://www.w3.org/2000/svg" xmlns:xlink="http://www.w3.org/1999/xlink" x="0px" y="0px"
	 viewBox="0 0 512 512" style="enable-background:new 0 0 512 512;" xml:space="preserve">
<g id="BULINE">
	<circle id="XMLID_2_" style="fill:#AC60FC;" cx="256" cy="256" r="256"/>
</g>
<g id="Icons">
	<g id="XMLID_2028_">
		<path id="XMLID_2046_" style="fill:#A85C3B;" d="M92.907,329.108H35.174c-9.257,0-16.761-7.504-16.761-16.761v-76.729
			c0-9.257,7.504-16.761,16.761-16.761h57.733V329.108z"/>
		<path id="XMLID_2045_" style="fill:#A04830;" d="M92.911,218.855V329.11H35.174c-9.257,0-16.761-7.504-16.761-16.761v-9.319h0
			c25.099,0,45.445-20.346,45.445-45.445v-38.73H92.911z"/>
		<path id="XMLID_2044_" style="fill:#A85C3B;" d="M418.82,329.108h57.733c9.257,0,16.761-7.504,16.761-16.761v-76.729
			c0-9.257-7.504-16.761-16.761-16.761H418.82V329.108z"/>
		<path id="XMLID_2043_" style="fill:#A04830;" d="M418.817,218.855V329.11h57.737c9.257,0,16.761-7.504,16.761-16.761v-9.319h0
			c-25.099,0-45.445-20.346-45.445-45.445v-38.73H418.817z"/>
		<path id="XMLID_2042_" style="fill:#32314B;" d="M437.634,234.885v19.6c0,51.969-42.129,94.098-94.098,94.098H298.86
			c-4.342,0-8.506-1.725-11.576-4.795l-25.835-25.835c-4.319-4.319-11.321-4.319-15.64,0l-25.835,25.835
			c-3.07,3.07-7.234,4.795-11.576,4.795h-44.676c-51.969,0-94.098-42.129-94.098-94.098v-19.6c0-37.847,30.684-68.531,68.542-68.531
			h230.925C406.95,166.354,437.634,197.038,437.634,234.885z"/>
		<path id="XMLID_2041_" style="fill:#3E436D;" d="M437.634,263.462v19.6c0,51.969-42.129,94.098-94.098,94.098H298.86
			c-4.342,0-8.506-1.725-11.576-4.795l-25.835-25.835c-4.319-4.319-11.321-4.319-15.64,0l-25.835,25.835
			c-3.07,3.07-7.234,4.795-11.576,4.795h-44.676c-51.969,0-94.098-42.129-94.098-94.098v-19.6c0-37.847,30.684-68.531,68.542-68.531
			h230.925C406.95,194.931,437.634,225.616,437.634,263.462z"/>
		<path id="XMLID_2040_" style="fill:#A85C3B;" d="M305.961,166.354H203.904V55.815c0-9.978,8.089-18.067,18.067-18.067h65.924
			c9.978,0,18.067,8.089,18.067,18.067V166.354z"/>
		<path id="XMLID_2039_" style="fill:#A04830;" d="M305.965,137.966v28.394H203.9V55.813c0-9.979,8.09-18.069,18.069-18.069h8.749
			V93.07c0,24.795,20.101,44.896,44.896,44.896H305.965z"/>
		<path id="XMLID_2038_" style="fill:#4ACE99;" d="M386.639,329.11H120.992c-6.871,0-12.44-5.57-12.44-12.44v-72.796
			c0-6.871,5.57-12.44,12.44-12.44h265.647c6.871,0,12.44,5.57,12.44,12.44v72.796C399.079,323.541,393.509,329.11,386.639,329.11z"
			/>
		<path id="XMLID_2037_" style="fill:#38C689;" d="M399.083,292.603v24.069c0,6.869-5.568,12.437-12.437,12.437H120.992
			c-6.869,0-12.437-5.568-12.437-12.437v-72.8c0-6.869,5.568-12.437,12.437-12.437h30.762v14.191
			c0,25.944,21.032,46.976,46.976,46.976H399.083z"/>
		<circle id="XMLID_2036_" style="fill:#DD1B1B;" cx="135.369" cy="210.29" r="9.684"/>
		<circle id="XMLID_2035_" style="fill:#38C689;" cx="168.147" cy="210.29" r="9.684"/>
		<g id="XMLID_2029_">
			<path id="XMLID_2033_" style="fill:#FFFFFF;" d="M215.229,319.784c-5.123,0-8.046-0.076-8.766-0.228
				c-0.721-0.152-1.329-0.702-1.822-1.651c-4.326-8.538-8.671-17.095-13.035-25.672c-6.869-13.775-10.303-21.573-10.303-23.395
				c0-2.997,0.104-7.504,0.313-13.519c0.208-6.014,0.313-10.521,0.313-13.519c0-1.404,0.379-2.107,1.138-2.107
				c2.277,0,5.729,0.095,10.36,0.285c4.63,0.19,8.101,0.285,10.417,0.285c0.948,0,1.423,0.398,1.423,1.195
				c0,3.073-0.219,7.694-0.655,13.86c-0.436,6.168-0.655,10.787-0.655,13.861c0,2.353,3.851,10.758,11.556,25.217
				c2.086-3.757,4.459-8.368,7.115-13.832c3.567-7.362,5.351-11.877,5.351-13.548c0-2.77-0.039-6.935-0.114-12.495
				c-0.076-5.559-0.114-9.724-0.114-12.495c0-1.025,0.171-1.594,0.512-1.708h1.822c2.086,0,5.246-0.104,9.477-0.313
				c4.231-0.208,7.39-0.313,9.478-0.313c1.138,0,1.708,0.456,1.708,1.366c0,2.923-0.048,7.334-0.142,13.234
				c-0.095,5.901-0.142,10.332-0.142,13.292c0,2.353-3.738,11.006-11.214,25.956c-2.96,5.39-7.229,13.51-12.807,24.363
				c-0.38,0.836-0.636,1.301-0.769,1.395c-0.133,0.095-0.617,0.181-1.451,0.256C222.287,319.708,219.289,319.784,215.229,319.784z"
				/>
			<path id="XMLID_2030_" style="fill:#FFFFFF;" d="M327.025,318.986c0,0.266-0.38,0.456-1.138,0.57
				c-1.443,0.228-5.067,0.342-10.872,0.342c-4.972,0-8.349-0.113-10.132-0.342c-0.836-0.113-1.309-0.208-1.424-0.285
				c-0.227-0.113-0.493-0.492-0.797-1.138c-0.569-1.48-1.404-3.681-2.504-6.603c-1.48-3.794-3.795-9.392-6.945-16.792
				c-0.683-1.481-2.258-2.296-4.725-2.448c1.139,0.076-0.816,0.113-5.862,0.113c-0.57,0-0.854,0.968-0.854,2.903
				c0,2.582,0.237,6.433,0.711,11.555c0.475,5.123,0.711,8.975,0.711,11.556c0,0.645-0.17,1.025-0.512,1.138
				c-0.533,0.037-1.063,0.075-1.594,0.113c-2.239,0.152-5.73,0.228-10.474,0.228c-5.428,0-8.691-0.113-9.79-0.342
				c-1.101-0.228-1.651-0.815-1.651-1.764c0-4.174,0.2-10.474,0.598-18.898c0.398-8.425,0.598-14.744,0.598-18.956
				c0-16.052-0.361-28.575-1.082-37.569l-0.057-0.797c-0.038-0.645,0.56-1.081,1.793-1.309c1.233-0.228,7.031-0.456,17.39-0.683
				c7.021-0.151,12.618-0.228,16.793-0.228c8.652,0,15.71,1.955,21.175,5.863c6.185,4.403,9.278,10.758,9.278,19.069
				c0,5.541-0.797,9.961-2.391,13.263c-1.593,3.301-4.535,6.509-8.823,9.62c-0.873,0.608-1.309,1.176-1.309,1.708
				c0-0.038,2.314,4.724,6.945,14.287C324.71,312.725,327.025,318,327.025,318.986z M303.117,267.927c0-4.63-1.518-7.836-4.554-9.62
				c-2.353-1.366-6.033-2.049-11.042-2.049c-3.607,0-5.522,0.551-5.75,1.65c-0.228,1.291-0.342,5.009-0.342,11.157
				c0,0.874,0.019,2.163,0.057,3.871c0.037,1.708,0.057,2.98,0.057,3.814c0,0.19,0.607,0.38,1.822,0.569
				c2.313,0.342,4.742,0.512,7.286,0.512C298.963,277.832,303.117,274.53,303.117,267.927z"/>
		</g>
	</g>
</g>
</svg>
